<svg xmlns="http://www.w3.org/2000/svg" id="drawable-svg" width="768.571" height="268.173" viewBox="395.449 216.438 800.571 300.173"><path fill="#000" stroke="#000" stroke-width="2" d="M 435.0270652376447 288.68537880986025 Q 435.0270652376447 288.68537880986025 434.6172942492563 287.9954799205335 434.2075232608679 287.30558103120677 434.2075232608679 287.30558103120677 434.2075232608679 287.30558103120677 433.60461741097004 286.7760743961416 433.00171156107217 286.24656776107645 432.26468747494494 285.9292851790027 431.5276633888177 285.61200259692896 430.7286661191599 285.53800189761773 429.9296688495022 285.46400119830656 429.1469098160094 285.6405260857997 428.3641507825165 285.8170509732928 427.67425189318976 286.2268219616812 426.984353003863 286.6365929500696 426.45484636879786 287.23949879996746 425.9253397337327 287.84240464986533 425.60805715165895 288.57942873599256 425.2907745695852 289.3164528221198 425.216773870274 290.1154500917776 425.1427731709628 290.9144473614353 425.31929805845596 291.6972063949281 425.49582294594904 292.479965428421 425.279214687003 297.9871651932842 425.062606428057 303.4943649581474 424.40273756949534 313.69664531016963 423.74286871093375 323.8989256621918 422.6982055822575 334.3550363829184 421.6535424535812 344.811147103645 420.46005200143156 355.95580985298875 419.26656154928185 367.10047260233245 418.0155798541592 380.2100436571166 416.7645981590366 393.3196147119008 415.84946039748183 406.14947609023716 414.93432263592706 418.97933746857353 414.66442868849197 427.49300131849486 414.3945347410568 436.00666516841613 415.08276243347433 444.46776775663 415.77099012589184 452.9288703448439 416.52297307027516 454.80041434928023 417.2749560146585 456.6719583537165 419.1300697107946 457.4636075712324 420.9851834069306 458.2552567887482 422.85672741136693 457.5032738443649 424.7282714158032 456.75129089998154 425.5199206333191 454.89617720384547 426.3115698508349 453.04106350770945 424.13205437536055 449.6012884996161 421.9525388998862 446.16151349152267 421.71649723136 445.6951727913388 421.48045556283387 445.22883209115497 421.1118593943394 444.8582566163867 420.7432632258448 444.48768114161845 420.27819331851475 444.2491454016872 419.8131234111847 444.01060966175595 419.297104047881 443.92746319686245 418.7810846845774 443.84431673196895 418.2646274358988 443.9246984974124 417.7481701872201 444.00508026285587 417.28182948703625 444.24112193138205 416.8154887868524 444.4771635999082 416.44491331208417 444.8457597684027 416.0743378373159 445.2143559368972 415.83580209738466 445.6794258442273 415.5972663574534 446.1444957515574 415.5141198925599 446.660515114861 415.4309734276664 447.1765344781646 415.51135519310986 447.6929917268433 415.5917369585533 448.2094489755219 415.6813635422226 450.5691596601829 415.77099012589184 452.9288703448439 416.52297307027516 454.80041434928023 417.2749560146585 456.6719583537165 419.1300697107946 457.4636075712324 420.9851834069306 458.2552567887482 422.85672741136693 457.5032738443649 424.7282714158032 456.75129089998154 425.5199206333191 454.89617720384547 426.3115698508349 453.04106350770945 427.5007073727647 444.7710253855099 428.68984489469443 436.5009872633103 429.05505153173647 428.20954788573545 429.42025816877856 419.9181085081606 430.22885856348285 407.2505258826766 431.03745895818713 394.58294325719254 432.0622921986295 381.4951421734765 433.0871254390719 368.40734108976045 434.00747494105997 357.1421381021428 434.9278244430481 345.87693511452517 435.5974592646396 335.171258086915 436.26709408623117 324.4655810593048 436.34196450178445 315.2917392846946 436.4168349173378 306.1178975100844 435.9932466683863 299.6058492662196 Z"/><path fill="#000" stroke="#000" stroke-width="2" d="M 415.76681867093185 306.76791147382716 Q 415.76681867093185 306.76791147382716 415.3391208741183 307.4073494383263 414.9114230773047 308.0467874028255 414.9114230773047 308.0467874028255 414.9114230773047 308.0467874028255 414.7022554985188 308.787094933401 414.49308791973294 309.5274024639766 414.52292533894257 310.29611310150995 414.5527627581522 311.06482373904333 414.8186844808755 311.7866907304108 415.08460620359887 312.5085577217782 415.5605819588302 313.11291969632157 416.03655771406153 313.717281670865 416.6759956785607 314.1449794676786 417.31543364305986 314.5726772644922 418.0557411736354 314.78184484327807 418.796048704211 314.99101242206393 419.5647593417443 314.9611750028543 420.3334699792777 314.9313375836447 421.05533697064516 314.66541586092137 421.77720396201255 314.399494138198 422.38156593655594 313.9235183829667 422.9859279110994 313.44754262773534 424.81000897021545 311.7305715204235 426.63409002933156 310.0136004131117 430.48963950400537 307.01329618975785 434.3451889786792 304.012991966404 438.64408908466476 301.47572861548076 442.94298919065034 298.9384652645575 447.7347709642626 296.75853988741517 452.5265527378749 294.5786145102728 457.1108762284092 293.2393209183236 461.6951997189435 291.90002732637436 464.85080013159586 292.367073985312 468.0064005442482 292.83412064424965 467.3613531572549 296.98570641143806 466.71630577026156 301.13729217862647 463.27124884536414 307.69369791783527 459.8261919204667 314.25010365704406 456.41200896657614 320.5405315502949 452.99782601268555 326.83095944354574 449.78755081853683 332.38797776311003 446.5772756243881 337.9449960826743 443.7996129534523 342.7098756230066 441.02195028251646 347.47475516333895 438.47425852917985 352.07408993112796 435.92656677584324 356.67342469891696 434.7332190943929 359.50755302942775 433.53987141294255 362.3416813599386 433.3768339695119 365.00196768844376 433.21379652608124 367.66225401694885 434.97961814702796 369.65864540156986 436.7454397679747 371.6550367861908 439.40572609647984 371.81807422962146 442.06601242498493 371.9811116730521 444.06240380960594 370.2152900521054 446.0587951942269 368.44946843115866 449.368604375216 366.77259585809156 452.6784135562051 365.0957232850245 458.2061392711373 362.5552810736821 463.73386498606953 360.01483886233973 468.29735119644783 358.5037747257875 472.86083740682614 356.9927105892353 477.613436850722 355.9980517146504 482.3660362946178 355.00339284006554 487.64726670315804 355.2025610960335 492.9284971116983 355.4017293520014 496.0195753433029 358.33891277487345 499.1106535749075 361.2760961977455 499.02791777884363 365.6971942633236 498.94518198277973 370.1182923289017 497.71529794760875 374.659867765977 496.4854139124377 379.20144320305235 494.0340171686013 384.48770891081074 491.5826204247649 389.7739746185691 487.88548114030925 395.30996222643694 484.18834185585354 400.8459498343048 479.0483864972283 406.4462349365995 473.9084311386031 412.04652003889424 468.0950164212787 417.01229573590604 462.28160170395427 421.9780714329179 456.6452159002727 425.29704929928926 451.00883009659117 428.6160271656606 446.00232212198307 430.160488226089 440.995814147375 431.7049492865173 435.7992190387499 431.65812757677304 430.6026239301249 431.6113058670287 425.98224526385434 429.3110200839864 421.36186659758374 427.01073430094414 420.6182594184663 426.4749537133777 419.87465223934885 425.9391731258113 419.0018744792711 425.65940276218834 418.1290967191934 425.3796323985654 417.212581946312 425.383258131352 416.29606717343063 425.3868838641386 415.42553023944913 425.6735507813477 414.5549933054677 425.96021769855685 413.8156484308717 426.50186484500614 413.0763035562757 427.0435119914555 412.5405229687093 427.78711917057296 412.0047423811429 428.5307263496904 411.7249720175199 429.4035041097681 411.44520165389696 430.27628186984583 411.44882738668355 431.1927966427272 411.4524531194702 432.1093114156086 411.7391200366793 432.97984834959004 412.0257869538884 433.85038528357154 412.5674341003378 434.5897301581675 413.10908124678707 435.3290750327635 418.47499489208315 439.78943402160616 423.84090853737916 444.2497930104488 428.7277853584734 445.8923386963828 433.61466217956763 447.5348843823168 439.6578619368132 447.1822781399892 445.7010616940588 446.8296718976616 452.38314056594885 444.5491889115076 459.0652194378389 442.2687059253535 465.8453750029349 438.17589384309133 472.62553056803085 434.08308176082915 479.1916768597459 428.3751799043238 485.7578231514609 422.6672780478184 491.6384186439223 416.0874443712038 497.5190141363837 409.50761069458923 501.84092760390604 402.80997817627906 506.1628410714284 396.11234565796894 509.0534896508839 389.24507655770725 511.94413823033943 382.37780745744556 513.1400593192914 375.8954553683245 514.3359804082432 369.4131032792035 513.5960951200757 363.2666877418651 512.8562098319082 357.1202722045267 510.07707391013594 351.9993362301813 507.29793798836357 346.8784002558359 503.200868793283 344.2642566504622 499.1037995982024 341.65011304508846 494.52937709829575 340.97766775822276 489.9549545983891 340.30522247135707 484.6708497666517 340.7093358539234 479.38674493491425 341.1134492364897 473.84724744474795 342.318935032995 468.3077499545817 343.52442082950023 463.0208832392186 345.3421586083705 457.73401652385553 347.1598963872407 452.86999259517665 349.44836688376193 448.00596866649784 351.7368373802832 443.2594860304762 355.0103744813673 438.5130033944545 358.2839115824514 436.02643740369854 360.31279647119504 433.53987141294255 362.3416813599386 433.3768339695119 365.00196768844376 433.21379652608124 367.66225401694885 434.97961814702796 369.65864540156986 436.7454397679747 371.6550367861908 439.40572609647984 371.81807422962146 442.06601242498493 371.9811116730521 444.06240380960594 370.2152900521054 446.0587951942269 368.44946843115866 447.1116088521154 365.80510532823905 448.16442251000393 363.1607422253194 450.56797513664316 358.7807339523785 452.9715277632824 354.40072567943764 455.74178209376157 349.60128570463485 458.5120364242408 344.801845729832 461.78657228370344 339.0538486763526 465.06110814316605 333.30585162287315 468.6259924869278 326.5616882231616 472.1908768306896 319.81752482344996 475.1662050309918 313.1071276515289 478.14153323129403 306.39673047960787 479.2777450950374 299.8112069184692 480.4139569587807 293.22568335733064 478.4824010244266 288.18010437364524 476.5508450900726 283.1345253899599 472.24064126503947 281.3758232633352 467.9304374400064 279.6171211367104 463.0061058419234 280.058903984674 458.0817742438403 280.5006868326375 452.77820226947745 282.3986002957801 447.4746302951146 284.29651375892274 442.33629374635444 286.99226286794067 437.1979571975943 289.6880119769586 432.7673274459444 292.5651072419106 428.33669769429446 295.4422025068626 424.1536624598008 298.9973801942143 Z"/><path fill="#000" stroke="#000" stroke-width="2" d="M 577.140036656556 289.1681538532047 Q 577.140036656556 289.1681538532047 577.2035494419574 288.53454886690474 577.2670622273589 287.9009438806047 577.2670622273589 287.9009438806047 577.2670622273589 287.9009438806047 577.1316717672955 287.2787231995778 576.9962813072323 286.6565025185509 576.675240563256 286.10657343832247 576.3541998192798 285.55664435809405 575.8789344962333 285.13283776861806 575.4036691731869 284.7090311791421 574.8207015522584 284.45283222223054 574.2377339313298 284.196633265319 573.6041289450297 284.1331204799176 572.9705239587297 284.0696076945161 572.3483032777028 284.20499815457936 571.726082596676 284.3403886146427 571.1761535164476 284.66142935861893 570.6262244362191 284.9824701025952 570.2024178467431 285.45773542564166 569.778611257267 285.9330007486881 569.5224123003554 286.51596836961664 569.266213343444 287.0989359905453 568.1901598063234 290.947272013971 567.1141062692029 294.7956080373966 565.5804120638296 301.8508907566369 564.0467178584563 308.90617347587715 562.807676720702 316.44453848721133 561.5686355829478 323.9829034985455 560.0205684109485 332.91601729460297 558.4725012389491 341.8491310906604 556.8119570234933 351.04564014187997 555.1514128080373 360.2421491930996 553.1348988357263 369.8083802833304 551.1183848634153 379.37461137356115 549.0098422636067 388.53444245097387 546.9012996637982 397.6942735283866 545.1320118552437 405.4677293142536 543.3627240466892 413.24118510012056 542.1339478399078 419.4395689432091 540.9051716331264 425.63795278629766 540.6777911635884 431.1591990096831 540.4504106940502 436.68044523306855 541.7577301223383 439.66539372795853 543.0650495506264 442.6503422228485 543.7334860669457 444.04740900489776 544.4019225832651 445.44447578694695 545.8624539721047 445.9596951888223 547.3229853609442 446.47491459069767 548.7200521429934 445.80647807437833 550.1171189250426 445.13804155805906 550.632338326918 443.6775101692195 551.1475577287935 442.2169787803799 551.4080496119016 441.0323858604452 551.6685414950095 439.8477929405104 551.6789906100673 439.21477968519014 551.6894397251252 438.58176642986996 551.503765570532 437.9765060943674 551.3180914159387 437.3712457588648 550.9544690716139 436.8529854419156 550.590846727289 436.33472512496644 550.0848700818008 435.9541957573256 549.5788934363127 435.5736663896847 548.9800910090682 435.36811683716087 548.3812885818238 435.16256728463696 547.7482753265036 435.1521181695791 547.1152620711835 435.14166905452123 546.5100017356808 435.3273432091145 545.9047414001783 435.5130173637077 545.3864810832291 435.8766397080326 544.8682207662799 436.2402620523575 544.4876913986391 436.74623869784557 544.1071620309982 437.2522153433337 543.9016124784744 437.85101777057815 543.6960629259505 438.4498201978226 543.3805562382885 440.5500812103355 543.0650495506264 442.6503422228485 543.7334860669457 444.04740900489776 544.4019225832651 445.44447578694695 545.8624539721047 445.9596951888223 547.3229853609442 446.47491459069767 548.7200521429934 445.80647807437833 550.1171189250426 445.13804155805906 550.632338326918 443.6775101692195 551.1475577287935 442.2169787803799 552.080195475687 439.9311066352424 553.0128332225805 437.6452344901048 554.0195074302308 433.0453964611179 555.0261816378811 428.44555843213095 556.2639060412129 422.43722376334006 557.5016304445446 416.42888909454916 559.248015975357 408.6500223586104 560.9944015061694 400.8711556226716 563.0447385440791 391.5291553771759 565.0950755819888 382.18715513168024 566.9931836780829 372.35285773136764 568.891291774177 362.5185603310551 570.3166750451408 353.068324534977 571.7420583161046 343.6180887388989 572.6051954821789 334.47661542825165 573.4683326482534 325.3351421176044 573.9525180577403 317.76307498095883 574.4367034672273 310.1910078443133 575.2250574491098 303.3614820232093 Z"/><path fill="#000" stroke="#000" stroke-width="2" d="M 575.9267686397524 308.9724828827596 Q 575.9267686397524 308.9724828827596 575.7624368559295 309.71647827129203 575.5981050721067 310.46047365982446 575.5981050721067 310.46047365982446 575.5981050721067 310.46047365982446 575.6717234770608 311.218836636099 575.7453418820148 311.9771996123735 576.0497041933393 312.6756963244468 576.3540665046636 313.37419303652007 576.859379618709 313.94444975950165 577.3646927327543 314.51470648248323 578.0214930811944 314.90090251511543 578.6782934296346 315.28709854774763 579.422288818167 315.45143033157046 580.1662842066994 315.61576211539324 580.924647182974 315.5421437104392 581.6830101592485 315.4685253054852 582.3815068713218 315.1641629941608 583.0800035833951 314.8598006828364 583.6502603063766 314.354487568791 584.2205170293582 313.84917445474565 584.6067130619904 313.1923741063056 584.9929090946226 312.53557375786545 585.3755842655211 311.56187228081467 585.7582594364195 310.5881708037639 585.6874857553457 310.5106986033995 585.6167120742718 310.43322640303506 585.8264764291024 314.94898034534475 586.036240783933 319.46473428765444 587.9642425766742 327.34800117214195 589.8922443694156 335.23126805662946 592.3591876867979 343.5540104890286 594.8261310041803 351.87675292142774 597.2632726006294 359.37182527200076 599.7004141970785 366.8668976225738 601.9971342242322 372.5270509635123 604.2938542513859 378.1872043044508 607.2307346329925 381.8161162740663 610.167615014599 385.44502824368186 615.2319098670515 385.51035600042303 620.296204719504 385.57568375716426 624.9736706424344 380.8043350934608 629.6511365653647 376.03298642975733 632.1890345245181 368.87073681868907 634.7269324836714 361.7084872076208 636.7710463580429 353.95881597464245 638.8151602324144 346.2091447416641 640.8709476381123 337.830237371654 642.92673504381 329.4513300016439 644.9274443281834 321.32476642365833 646.9281536125568 313.19820284567277 648.7011127780236 306.1919648046117 650.4740719434903 299.18572676355063 651.8994690836815 293.8351084591352 653.3248662238727 288.48449015471977 654.335730088294 285.5871986238491 655.3465939527152 282.6899070929784 654.0971345930907 283.0392079056879 652.847675233466 283.38850871839736 651.6180777413908 289.07164038949935 650.3884802493158 294.75477206060134 651.5983419932812 303.6741920972994 652.8082037372467 312.59361213399745 654.5434426631285 322.9421047440928 656.2786815890104 333.2905973541881 658.2606508732197 345.12658189391016 660.2426201574291 356.9625664336322 662.3614417514793 368.7954100622022 664.4802633455295 380.62825369077217 666.5127212074135 391.32130532096994 668.5451790692975 402.01435695116766 670.2527680486357 410.38892031355454 671.9603570279738 418.7634836759414 673.2363157578372 424.73955808886365 674.5122744877006 430.71563250178593 676.8955902546278 435.1789985446524 679.278906021555 439.6423645875189 680.2324005078488 441.1060205934367 681.1858949941426 442.5696765993546 682.8950784983338 442.9304152693812 684.604262002525 443.29115393940776 686.0679180084428 442.337659453114 687.5315740143607 441.3841649668202 687.8923126843872 439.67498146262903 688.2530513544139 437.9657979584378 687.8030907731369 436.49721446500126 687.3531301918599 435.0286309715647 687.0324081447586 434.39063113050145 686.7116860976574 433.7526312894381 686.2095085115452 433.2449659462246 685.7073309254329 432.7373006030111 685.0728544413153 432.40966357855353 684.4383779571978 432.082026554096 683.7337095539979 431.9664892431297 683.029041150798 431.8509519321634 682.3231586815344 431.95882393168154 681.6172762122709 432.0666959311996 680.9792763712076 432.38741797830085 680.3412765301443 432.7081400254021 679.8336111869307 433.21031761151437 679.3259458437172 433.7124951976266 678.9983088192597 434.3469716817442 678.6706717948022 434.98144816586176 678.5551344838359 435.68611656906165 678.4395971728695 436.39078497226154 678.5474691723877 437.0966674415251 678.6553411719058 437.8025499107886 678.9671235967304 438.72245724915376 679.278906021555 439.6423645875189 680.2324005078488 441.1060205934367 681.1858949941426 442.5696765993546 682.8950784983338 442.9304152693812 684.604262002525 443.29115393940776 686.0679180084428 442.337659453114 687.5315740143607 441.3841649668202 687.8923126843872 439.67498146262903 688.2530513544139 437.9657979584378 689.1827217429039 432.67247075682104 690.112392131394 427.3791435552043 688.8503118563515 421.47032450248105 687.5882315813091 415.56150544975776 685.9015967988823 407.292594136713 684.2149620164557 399.0236828236682 682.1991456946539 388.42032465378384 680.1833293728521 377.81696648389953 678.0796565546086 366.0717762789069 675.9759837363653 354.3265860739143 673.9916934440344 342.4773739181909 672.0074031517033 330.62816176246747 670.2132601315358 319.9854724074531 668.4191171113682 309.3427830524387 666.6103147030628 301.05087205907 664.8015122947575 292.7589610657013 661.8566113499922 285.76163194481614 658.911710405227 278.76430282393096 654.0136886756527 276.07161561589413 649.1156669460782 273.3789284078573 645.4809658344288 275.42472244189725 641.8462647227796 277.4705164759372 640.5433101222138 281.0786381455399 639.2403555216481 284.68675981514264 637.7767021576466 290.1359236001506 636.3130487936451 295.58508738515854 634.5189360034608 302.6269151098583 632.7248232132765 309.6687428345581 630.6906012328323 317.78383385938326 628.6563792523879 325.89892488420844 626.5729987085283 334.15199310165576 624.4896181646689 342.4050613191031 622.5451605442227 349.7209159680708 620.6007029237765 357.03677061703854 620.1616499808634 363.24207599458066 619.7225970379504 369.4473813721228 619.9524735594357 372.53434714508444 620.182350080921 375.62131291804604 618.9619376196625 374.04166573219743 617.7415251584041 372.46201854634876 615.5976829373278 367.347891100773 613.4538407162515 362.2337636551972 610.9405523963188 354.91538185461667 608.4272640763861 347.59700005403613 605.5854496117861 339.06573762651095 602.743635147186 330.5344751989858 599.7178758560502 322.95246427106764 596.6921165649145 315.3704533431495 592.9769575793346 310.3531638913411 589.2617985937545 305.33587443953274 585.1973296366945 304.32330277801447 581.1328606796344 303.3107311164962 578.9124898305918 305.16790552257714 Z"/><path fill="#000" stroke="#000" stroke-width="2" d="M 751.5348616282022 270.4338602367532 Q 751.5348616282022 270.4338602367532 751.3052563492747 269.64197360950436 751.0756510703474 268.85008698225545 751.0756510703474 268.85008698225545 751.0756510703474 268.85008698225545 750.6125770482096 268.1679099784302 750.1495030260718 267.4857329746049 749.4982891724369 266.98004183234434 748.8470753188019 266.4743506900837 748.0714669829373 266.19464598174966 747.2958586470727 265.91494127341554 746.471777776874 265.888602444677 745.6476969066752 265.8622636159385 744.8558102794262 266.09186889486585 744.0639236521773 266.3214741737932 743.3817466483521 266.784548195931 742.6995696445268 267.2476222180688 742.1938785022662 267.8988360717037 741.6881873600056 268.5500499253387 741.4084826516715 269.32565826120333 741.1287779433375 270.10126659706793 741.1024391145988 270.92534746726676 741.0761002858603 271.74942833746553 741.3801944290794 276.0195679605855 741.6842885722986 280.28970758370554 742.1350187501503 288.79952767395775 742.5857489280019 297.30934776421003 742.8466292035969 306.73937412107307 743.107509479192 316.16940047793616 743.2710415952058 327.8958446835966 743.4345737112196 339.622288889257 743.4756282266079 352.50781514268203 743.5166827419962 365.3933413961071 743.3445378711868 378.43203247997184 743.1723930003775 391.4707235638366 742.8273413679035 404.1223531126709 742.4822897354296 416.77398266150516 742.167531354276 428.41157352335927 741.8527729731222 440.0491643852133 741.7086761394074 450.1963789527712 741.5645793056926 460.34359352032914 741.6156191059175 468.12241239566146 741.6666589061424 475.9012312709938 741.814188609673 481.3625782434651 741.9617183132036 486.8239252159365 742.6539729109068 490.85064516666205 743.3462275086099 494.8773651173876 744.3195005493201 497.095383100777 745.2927735900302 499.3134010841664 747.5493571139107 500.19356867398255 749.8059406377913 501.07373626379876 752.0239586211808 500.1004632230886 754.2419766045701 499.12719018237846 755.1221441943862 496.8706066584979 756.0023117842024 494.61402313461736 752.6341253360947 491.32303085625756 749.2659388879869 488.0320385778978 748.9616248743241 487.6025696220738 748.6573108606614 487.1731006662498 748.2351778290613 486.8586896191151 747.8130447974613 486.5442785719805 747.3144140702309 486.3757021774593 746.8157833430005 486.20712578293814 746.2894643698854 486.200885473067 745.7631453967704 486.19464516319584 745.2606579459392 486.35135178298367 744.7581704951081 486.5080584027715 744.3287015392841 486.8123724164343 743.89923258346 487.1166864300971 743.5848215363254 487.53881946169713 743.2704104891908 487.9609524932971 743.1018340946696 488.4595832205275 742.9332577001485 488.958213947758 742.9270173902773 489.484532920873 742.9207770804061 490.010851893988 743.077483700194 490.51333934481914 743.2341903199818 491.0158267956503 743.2902089142958 492.946595956519 743.3462275086099 494.8773651173876 744.3195005493201 497.095383100777 745.2927735900302 499.3134010841664 747.5493571139107 500.19356867398255 749.8059406377913 501.07373626379876 752.0239586211808 500.1004632230886 754.2419766045701 499.12719018237846 755.1221441943862 496.8706066584979 756.0023117842024 494.61402313461736 756.8745876083117 490.5630090228948 757.7468634324209 486.51199491117217 757.6825218993888 481.14084418352604 757.6181803663567 475.76969345587986 757.566736238378 468.15942635480525 757.5152921103993 460.54915925373064 757.6575604280898 450.51408809894343 757.7998287457804 440.4790169441562 758.1145023275935 428.8449623867107 758.4291759094068 417.2109078292652 758.7760631540386 404.4430258363752 759.1229503986704 391.67514384348533 759.2953156062912 378.4511820831595 759.467680813912 365.22722032283366 759.233979851395 352.15375558514313 759.000278888878 339.0802908474526 758.368633545175 327.1728412056475 757.7369882014721 315.2653915638424 756.8421449052898 305.711703101751 755.9473016091075 296.1580146396596 754.592108325045 287.5882014939805 Z"/><path fill="#000" stroke="#000" stroke-width="2" d="M 733.2677435103559 263.25010289991667 Q 733.2677435103559 263.25010289991667 733.1249111218197 263.9309554624099 732.9820787332834 264.61180802490304 732.9820787332834 264.61180802490304 732.9820787332834 264.61180802490304 733.0566320719022 265.30347492650327 733.131185410521 265.9951418281035 733.415826676067 266.62991789335547 733.700467941613 267.26469395860744 734.1673344638025 267.7804428834994 734.6342009859919 268.2961918083914 735.2375926167824 268.6424284947209 735.8409842475729 268.9886651810504 736.5218368100661 269.1314975695866 737.2026893725592 269.2743299581228 737.8943562741595 269.19977661950406 738.5860231757597 269.1252232808853 739.2207992410117 268.84058201533924 739.8555753062637 268.5559407497932 740.3713242311558 268.08907422760376 740.8870731560477 267.6222077054144 741.2333098423771 267.0188160746238 741.5795465287066 266.41542444383333 742.6788200297087 264.3527765892237 743.778093530711 262.29012873461414 747.4111043000325 258.0268426199374 751.044115069354 253.76355650526062 755.6011455455075 250.84039219426043 760.158176021661 247.91722788326024 764.1841344007198 246.85504958011958 768.2100927797787 245.79287127697893 772.2501302175658 245.73316829125355 776.2901676553529 245.67346530552814 781.5727058480969 247.6885209471365 786.855244040841 249.7035765887449 792.0526035250637 254.62304043264024 797.2499630092863 259.54250427653557 798.7887606677727 266.588872630698 800.3275583262591 273.6352409848604 798.7410060824228 280.13827811753663 797.1544538385865 286.64131525021287 794.4369629117759 292.10655162807024 791.7194719849653 297.5717880059276 788.4442941111374 303.1881499401419 785.1691162373097 308.8045118743562 781.4667197144463 314.4160599970254 777.7643231915829 320.0276081196946 774.0279365762872 325.11961660921895 770.2915499609915 330.2116250987433 766.797706429866 334.4530632807707 763.3038628987406 338.6945014627982 760.0544194601343 342.2423777091815 756.8049760215281 345.7902539555648 753.3479594094051 350.1994650443721 749.8909427972822 354.6086761331795 746.486003010597 357.9314470239344 743.0810632239119 361.25421791468943 742.5653617193177 361.54617553039355 742.0496602147235 361.8381331460977 741.6494188032058 362.27516186793946 741.249177391688 362.7121905897812 741.0035744912519 363.25151100150856 740.7579715908158 363.7908314132359 740.6910485245721 364.3796510752827 740.6241254583284 364.9684707373295 740.7424331222815 365.5491518786268 740.8607407862346 366.1298330199241 741.1526984019388 366.6455345245183 741.4446560176428 367.1612360291125 741.8816847394846 367.56147744063026 742.3187134613264 367.96171885214807 742.8580338730537 368.2073217525841 743.397354284781 368.4529246530202 743.9861739468279 368.5198477192639 744.5749936088747 368.58677078550755 745.155674750172 368.46846312155446 745.7363558914693 368.35015545760143 753.6384247395376 365.38334368069945 761.540493587606 362.4165319037974 765.0486406628261 359.4944786951662 768.5567877380463 356.57242548653494 772.0827086011022 352.7044887440072 775.6086294641582 348.83655200147945 779.3726068215134 344.25013312658325 783.1365841788686 339.663714251687 787.1126777194404 334.2263056244343 791.0887712600122 328.7888969971816 795.0255379297432 322.7980012671561 798.9623045994742 316.8071055371306 802.5182180034135 310.64787053743987 806.0741314073526 304.48863553774913 809.2140745009197 297.81494001068705 812.3540175944868 291.141244483625 814.2841842006502 284.2043891432214 816.2143508068136 277.2675338028178 816.0999842016605 270.9605968536895 815.9856175965074 264.6536599045612 814.0133661111016 259.3889513952587 812.0411146256959 254.1242428859561 808.6319607617331 249.64509234183444 805.2228068977704 245.16594179771278 800.8884813962477 241.73421108844943 796.554155894725 238.30248037918608 791.6577956582823 236.1539404449365 786.7614354218397 234.0054005106869 781.1105082366522 233.05533256038882 775.4595810514647 232.10526461009076 769.7240717000825 232.61745221694042 763.9885623487003 233.12963982379011 758.7059503427799 235.21817019603398 753.4233383368595 237.30670056827785 749.2050777820225 240.3855228169416 744.9868172271854 243.46434506560536 742.1666135317596 246.80828345043565 739.3464098363338 250.15222183526595 737.2345594589638 254.27373606448606 Z"/><path fill="#000" stroke="#000" stroke-width="2" d="M 845.2318983532095 262.5696505266529 Q 845.2318983532095 262.5696505266529 844.5697231379331 263.0670540010995 843.9075479226567 263.56445747554613 843.9075479226567 263.56445747554613 843.9075479226567 263.56445747554613 843.431487995904 264.24213968592073 842.9554280691514 264.91982189629533 842.7120834934576 265.71144658615685 842.4687389177639 266.5030712760184 842.4819299556793 267.33114870514964 842.4951209935947 268.15922613428086 842.7635564144207 268.94269831436384 843.0319918352467 269.72617049444676 843.5293953096932 270.3883457097231 844.0267987841398 271.05052092499955 844.7044809945144 271.5265808517522 845.382163204889 272.0026407785048 846.1737878947506 272.2459853541986 846.9654125846121 272.48932992989234 847.7934900137434 272.476138891977 848.6215674428746 272.4629478540616 849.4050396229575 272.1945124332356 850.1885118030405 271.9260770124096 853.1266770112009 270.7006147062058 856.0648422193613 269.475152400002 862.053354771886 267.03416910795556 868.0418673244106 264.5931858159092 872.0955332816031 263.19064268212594 876.1491992387955 261.78809954834276 875.1490483770492 262.3714469355208 874.1488975153028 262.95479432269883 871.5124472923997 267.8525615119796 868.8759970694964 272.7503287012604 867.5741774635404 282.2341511836973 866.2723578575844 291.7179736661342 864.8747424228069 302.9105479424499 863.4771269880293 314.10312221876563 861.7961427553342 325.9659829709919 860.1151585226391 337.82884372321814 858.1914801869884 348.56092842518257 856.2678018513377 359.293013127147 854.3205176636974 367.30886745029665 852.3732334760571 375.3247217734463 850.3384707852144 380.5636485917738 848.3037080943718 385.8025754101013 846.3801899198002 388.2869321951297 844.4566717452284 390.771288980158 845.4159022994395 392.8685579231582 846.3751328536505 394.96582686615847 850.2240963544674 397.60475839893104 854.0730598552843 400.24368993170356 859.0831718327181 400.88133602107666 864.0932838101519 401.51898211044977 870.1319248048088 400.77827963123036 876.1705657994657 400.037577152011 882.0215307303855 399.658727400767 887.8724956613053 399.2798776495231 893.8519898217537 399.027366113449 899.8314839822021 398.77485457737487 904.4279621257193 396.1714791956595 909.0244402692365 393.56810381394416 910.863532301041 389.9510294516918 912.7026243328454 386.3339550894394 912.8059767709974 385.7653849180391 912.9093292091494 385.1968147466388 912.8319253734716 384.62413472035837 912.7545215377937 384.051454694078 912.5039382550262 383.5307227239863 912.2533549722588 383.0099907538945 911.8541210800355 382.59217971337694 911.4548871878122 382.1743686728593 910.9460824811299 381.9003768176225 910.4372777744477 381.6263849623856 909.8687076030474 381.5230325242336 909.300137431647 381.41968008608154 908.7274574053667 381.49708392175944 908.1547773790863 381.57448775743734 907.6340454089946 381.82507104020476 907.1133134389028 382.0756543229722 906.6955023983852 382.4748882151955 906.2776913578676 382.87412210741877 906.0036995026308 383.38292681410104 905.7297076473939 383.8917315207833 902.2643749943632 383.37681275264185 898.7990423413326 382.86189398450034 892.8214796352867 383.1142250940826 886.8439169292408 383.3665562036649 880.5255307823867 383.78998832042123 874.2071446355326 384.2134204371775 867.6991672148762 385.0262410445446 861.1911897942198 385.8390616519116 855.1562323946089 387.0235594732975 849.1212749949979 388.2080572946834 844.1410871152589 391.2167293484588 839.16089923552 394.2254014022341 838.8534094443589 398.57749576474896 838.5459196531979 402.9295901272638 843.2967371726475 404.01628150708996 848.0475546920972 405.1029728869161 852.3536739720216 402.5945391773764 856.659793251946 400.0861054678367 859.5088039421677 395.88383632780824 862.3578146323894 391.6815671877798 864.9199571037555 385.41311462145416 867.4820995751215 379.1446620551285 869.6073488564299 370.60873978670617 871.7325981377383 362.07281751828384 873.664222335688 350.99457718651837 875.5958465336378 339.9163368547529 877.1467381200968 327.8706904838553 878.6976297065557 315.8250441129577 879.8330713300082 304.6443755053304 880.9685129534607 293.4637068977031 881.8981517022461 284.01899099994927 882.8277904510314 274.57427510219543 883.3702962047797 267.9548183091422 883.912801958528 261.335361516089 882.2178258150282 257.24640541130407 880.5228496715283 253.15744930651914 877.0497218375937 252.06900154568172 873.576594003659 250.9805537848443 868.7197127639863 252.77192998189645 863.8628315243137 254.5633061789486 857.6044838111065 257.20408579679145 Z"/><path fill="#000" stroke="#000" stroke-width="2" d="M 947.5032185021006 372.76728187603004 Q 947.5032185021006 372.76728187603004 948.4813211364578 372.2390956219929 949.459423770815 371.71090936795565 949.459423770815 371.71090936795565 949.459423770815 371.71090936795565 950.2264361261332 370.9063240529768 950.9934484814513 370.10173873799795 951.4742900443025 369.09951277858306 951.9551316071537 368.0972868191681 952.102734255146 366.99552507514363 952.2503369031382 365.8937633311191 952.0502522606779 364.80031391841544 951.8501676182176 363.70686450571185 951.3219813641804 362.72876187135466 950.7937951101432 361.7506592369975 949.9892097951642 360.98364688167936 949.1846244801854 360.21663452636125 948.1823985207706 359.73579296351 947.1801725613557 359.2549514006588 946.0784108173311 359.10734875266655 944.9766490733066 358.9597461046743 943.8831996606029 359.1598307471346 942.7897502478994 359.35991538959496 941.06155005099 360.17021792816263 939.3333498540806 360.98052046673035 937.1281710588929 363.99190542307355 934.9229922637053 367.00329037941674 936.3917079022377 370.4451885373011 937.8604235407702 373.8870866951854 940.3416623955723 375.89987130539623 942.8229012503743 377.912655915607 943.2397161531742 378.34420193967424 943.6565310559741 378.77574796374154 944.1863006406627 379.0573697335381 944.7160702253512 379.3389915033347 945.3069369538573 379.44312191785855 945.8978036823634 379.5472523323824 946.4919294024903 379.4636983811407 947.0860551226172 379.3801444298991 947.6252826693615 379.117084955794 948.1645102161059 378.85402548168895 948.5960562401732 378.43721057888905 949.0276022642405 378.02039567608915 949.309224034037 377.4906260914006 949.5908458038336 376.9608565067121 949.6949762183575 376.369989778206 949.7991066328814 375.77912304969993 949.7155526816397 375.18499732957304 949.631998730398 374.59087160944614 949.368939256293 374.0516440627017 949.1058797821879 373.51241651595734 947.6799775800205 373.3521506460735 Z"/><path fill="#000" stroke="#000" stroke-width="2" d="M 1017.6022582419849 347.70616757903076 Q 1017.6022582419849 347.70616757903076 1018.0442488405063 348.1386412718241 1018.4862394390277 348.5711149646175 1018.4862394390277 348.5711149646175 1018.4862394390277 348.5711149646175 1019.0402391985859 348.84583928197776 1019.5942389581442 349.1205635993381 1020.2060185223304 349.2106466109652 1020.8177980865165 349.3007296225923 1021.4274722090693 349.19735337566294 1022.0371463316219 349.09397712873357 1022.5850358615763 348.80726081056184 1023.1329253915308 348.5205444923901 1023.5653990843241 348.07855389386873 1023.9978727771175 347.6365632953473 1024.2725970944778 347.08256353578906 1024.547321411838 346.5285637762309 1024.6374044234653 345.9167842120447 1024.7274874350924 345.30500464785854 1024.624111188163 344.6953305253058 1024.5207349412335 344.08565640275305 1024.2340186230617 343.53776687279867 1023.9473023048902 342.98987734284424 1022.164538361134 340.44633069267417 1020.3817744173779 337.9027840425041 1017.1318753824323 332.8664133254862 1013.8819763474868 327.8300426084682 1010.0945165630133 323.4862841965148 1006.3070567785398 319.1425257845614 1001.1128334209521 317.25431873487184 995.9186100633644 315.3661116851823 991.2035974681901 319.0545409046547 986.4885848730156 322.742970124127 984.7379836504012 329.0109979886622 982.9873824277868 335.27902585319737 983.5133397478721 340.4220507648015 984.0392970679576 345.5650756764057 985.2363355144712 350.9003735458283 986.4333739609847 356.235671415251 988.0773416470105 361.09347806848535 989.7213093330363 365.95128472171973 991.9382658784739 369.7551387562015 994.1552224239114 373.5589927906833 997.7837758100279 375.88813114344987 1001.4123291961446 378.21726949621643 1006.4643765671269 377.10418457445485 1011.5164239381091 375.99109965269326 1015.9497463171599 371.5821434542821 1020.3830686962107 367.173187255871 1023.5050959826433 360.4765439637713 1026.627123269076 353.77990067167156 1029.1198168680546 345.58451824259413 1031.6125104670332 337.3891358135167 1033.417332924274 329.05500436558214 1035.2221553815148 320.72087291764757 1036.51535993438 312.2691851358203 1037.8085644872453 303.81749735399296 1038.6408973897035 296.22008652310956 1039.4732302921616 288.6226756922261 1039.9023013292444 282.8753621537817 1040.3313723663275 277.1280486153373 1040.374461265148 271.89003370639387 1040.4175501639684 266.65201879745047 1039.5704198524968 264.24872877798214 1038.723289541025 261.84543875851375 1036.4248952833107 260.74506767638 1034.1265010255963 259.6446965942463 1031.7232110061282 260.49182690571797 1029.3199209866598 261.33895721718966 1028.219549904526 263.637351474904 1027.1191788223923 265.93574573261833 1027.4201137960742 264.99239628306634 1027.7210487697562 264.04904683351435 1026.9462146509013 269.58572805031196 1026.1713805320464 275.12240926710956 1025.0787406842633 286.721795160001 1023.9861008364801 298.3211810528925 1024.3672158235813 307.79539597132174 1024.7483308106828 317.269610889751 1025.9149560971523 325.14251664715096 1027.0815813836216 333.0154224045509 1029.4823331889488 339.36863351736076 1031.8830849942763 345.7218446301706 1035.869083480659 350.08233552673727 1039.8550819670418 354.4428264233039 1048.2420255891568 356.9398063193063 1056.6289692112719 359.4367862153086 1057.3382188859641 359.39643638200926 1058.0474685606562 359.35608654871 1058.7095363012427 359.09854137408445 1059.3716040418294 358.8409961994589 1059.9216820449647 358.39146599962226 1060.4717600480997 357.9419357997856 1060.8560028462175 357.34442372275896 1061.2402456443356 356.74691164573227 1061.4210408751796 356.0599063367263 1061.6018361060237 355.3729010277204 1061.5614862727243 354.6636513530282 1061.521136439425 353.954401678336 1061.2635912647993 353.29233393774945 1061.0060460901739 352.6302661971629 1060.5565158903373 352.08018819402776 1060.1069856905006 351.5301101908927 1059.5094736134738 351.1458673927747 1058.9119615364473 350.7616245946567 1058.2249562274415 350.58082936381265 1057.5379509184354 350.40003413296864 1050.8181225504209 345.8879774270901 1044.098294182406 341.37592072121157 1042.436146708887 336.13343748334535 1040.7739992353681 330.8909542454792 1039.710883093051 323.75327269312857 1038.647766950734 316.6155911407779 1038.2355978107312 307.73605087329975 1037.8234286707284 298.85651060582165 1037.5631658812367 289.8208043397889 1037.302903091745 280.7850980737561 1037.9660164488484 275.15552258501 1038.6291298059518 269.5259470962638 1039.52333998496 268.08898294685713 1040.4175501639684 266.65201879745047 1039.5704198524968 264.24872877798214 1038.723289541025 261.84543875851375 1036.4248952833107 260.74506767638 1034.1265010255963 259.6446965942463 1031.7232110061282 260.49182690571797 1029.3199209866598 261.33895721718966 1028.219549904526 263.637351474904 1027.1191788223923 265.9357457326184 1027.0139991489796 271.0524478683923 1026.908819475567 276.1691500041661 1026.501321394535 281.6764233243016 1026.0938233135025 287.183696644437 1025.2908597766052 294.4759374359867 1024.4878962397079 301.7681782275364 1023.247507425581 309.8126363419425 1022.0071186114542 317.85709445634865 1020.3132357800233 325.6774557286153 1018.6193529485925 333.497817000882 1016.4957394858524 340.77363619873046 1014.3721260231123 348.04945539657894 1011.9629223593413 354.24683598794945 1009.5537186955703 360.4442165793199 1008.111850854013 363.6806078975615 1006.6699830124558 366.9169992158031 1004.6397951638536 364.9498457105113 1002.6096073152514 362.98269220521945 999.8759836755972 358.22987540419524 997.142360035943 353.47705860317103 995.790259865686 348.9147084202813 994.4381596954291 344.35235823739146 994.1392779853404 338.2576807788305 993.8403962752516 332.1630033202695 996.2304666055043 329.3755955369675 998.620536935757 326.5881877536655 1002.5218586480169 329.79418459118386 1006.4231803602769 333.0001814287022 1010.0561262502581 337.7433340843344 Z"/><path fill="#000" stroke="#000" stroke-width="2" d="M 1069.6197649306107 336.73112712011886 Q 1069.6197649306107 336.73112712011886 1068.8685753762575 337.03354300089387 1068.1173858219042 337.3359588816689 1068.1173858219042 337.3359588816689 1068.1173858219042 337.3359588816689 1067.4964137477918 337.8557038140032 1066.8754416736797 338.37544874633755 1066.4454721529896 339.06164647497843 1066.0155026322993 339.7478442036193 1065.8186240774903 340.53332491386664 1065.621745522681 341.31880562411396 1065.6772297784312 342.12668099128285 1065.7327140341813 342.93455635845174 1066.0351299149563 343.68574591280503 1066.3375457957313 344.4369354671583 1066.8572907280657 345.05790754127054 1067.3770356604 345.67887961538275 1068.0632333890408 346.1088491360729 1068.7494311176818 346.53881865676306 1069.5349118279291 346.7356972115722 1070.3203925381765 346.9325757663814 1071.1282679053454 346.87709151063126 1071.9361432725143 346.82160725488114 1074.853764186999 346.37081644804437 1077.7713851014832 345.92002564120753 1083.4878750006455 343.3752853895703 1089.204364899808 340.8305451379331 1093.6228668271435 336.08812912442636 1098.041368754479 331.3457131109196 1099.3543569928593 325.16784026589903 1100.6673452312393 318.9899674208785 1098.0353114502802 313.074099899449 1095.4032776693211 307.1582323780195 1089.172946539637 305.8123312356761 1082.9426154099529 304.46643009333275 1077.6499733412575 307.4931762258782 1072.3573312725619 310.5199223584236 1069.6574307020555 317.46446728858956 1066.957530131549 324.4090122187555 1065.5492340455153 332.66660042223145 1064.1409379594816 340.92418862570736 1064.4500362666026 347.05235592762085 1064.7591345737237 353.1805232295344 1066.575603608614 358.56738024951176 1068.3920726435044 363.9542372694891 1072.4562211532545 367.92888664453915 1076.5203696630047 371.9035360195892 1082.861287558776 372.67559668034187 1089.2022054545475 373.44765734109455 1095.7028565503024 370.9793341386034 1102.2035076460572 368.51101093611226 1106.8886117408524 364.82068806264067 1111.5737158356474 361.13036518916914 1116.2331216753707 357.3806577549442 1120.8925275150941 353.6309503207192 1121.2259223908295 353.3192331628968 1121.5593172665651 353.0075160050744 1121.7800687364274 352.6080306884466 1122.0008202062897 352.2085453718188 1122.0873195783429 351.760396302555 1122.1738189503958 351.3122472332912 1122.1175990634265 350.85930236472916 1122.0613791764572 350.40635749616706 1121.867943224709 349.992954227894 1121.6745072729607 349.579550959621 1121.3627901151383 349.24615608388547 1121.051072957316 348.9127612081499 1120.6515876406881 348.69200973828765 1120.2521023240604 348.47125826842534 1119.8039532547964 348.3847588963723 1119.3558041855326 348.2982595243193 1118.9028593169705 348.35447941128865 1118.4499144484084 348.410699298258 1118.0365111801354 348.6041352500062 1117.6231079118625 348.7975712017544 1112.659599373855 351.26975076851863 1107.6960908358474 353.7419303352829 1101.4378062809983 355.7744236197799 1095.179521726149 357.8069169042768 1089.4884962906904 358.14585107018974 1083.7974708552315 358.48478523610265 1081.6529694159196 355.25500807615765 1079.5084679766078 352.02523091621265 1079.0379154104571 346.9887124247888 1078.5673628443064 341.95219393336487 1079.1648814004525 335.3551583467089 1079.7623999565985 328.75812276005297 1082.6455507883506 324.3493276830381 1085.5287016201028 319.9405326060232 1087.1575567187401 321.8565452543826 1088.7864118173775 323.7725579027419 1086.153913702315 327.9935521969186 1083.5214155872525 332.21454649109523 1079.0305251916152 334.1731584046802 Z"/><path fill="#000" stroke="#000" stroke-width="2" d="M 1132.5709895310315 299.94983948675497 Q 1132.5709895310315 299.94983948675497 1132.4416882041887 299.12063527054613 1132.3123868773457 298.2914310543373 1132.3123868773457 298.2914310543373 1132.3123868773457 298.2914310543373 1131.9331758132703 297.5427672885621 1131.5539647491948 296.794103522787 1130.9619637689575 296.1992646330868 1130.36996278872 295.60442574338657 1129.6231210729795 295.2216387047714 1128.8762793572391 294.83885166615624 1128.0477029766846 294.7055863409999 1127.21912659613 294.57232101584356 1126.3899223799212 294.70162234268645 1125.5607181637122 294.83092366952934 1124.8120543979371 295.21013473360483 1124.063390632162 295.58934579768027 1123.4685517424618 296.1813467779177 1122.8737128527616 296.7733477581551 1122.4909258141465 297.5201894738956 1122.1081387755312 298.267031189636 1121.9748734503748 299.0956075701905 1121.8416081252185 299.92418395074503 1121.3320338517715 303.1993927488999 1120.8224595783242 306.4746015470548 1120.5589014346767 311.96691791617076 1120.2953432910292 317.4592342852867 1121.0683644356795 322.5381467754245 1121.8413855803296 327.61705926556226 1122.9399282363747 333.1688406890294 1124.0384708924198 338.7206221124966 1125.2162385825616 344.0539400574897 1126.3940062727033 349.3872580024828 1127.5252408198646 354.1328827254487 1128.656475367026 358.87850744841467 1129.8279393604566 363.43694826152773 1130.9994033538874 367.99538907464085 1132.291790064358 371.4775900653292 1133.5841767748288 374.9597910560176 1136.9159085283147 376.37431599515185 1140.2476402818006 377.78884093428604 1145.5171096372562 374.71601840544145 1150.7865789927118 371.6431958765968 1154.6340759149964 365.5026095385364 1158.481572837281 359.36202320047596 1161.295073707966 353.04497832064465 1164.1085745786509 346.7279334408134 1167.1428992433814 339.4681471598451 1170.177223908112 332.2083608788768 1172.550097498247 325.37307648681383 1174.9229710883817 318.53779209475084 1176.0199632502313 312.0377491708589 1177.1169554120809 305.537706246967 1178.5221316725747 298.31474745357 1179.9273079330687 291.0917886601731 1179.9915638540092 290.6287629289469 1180.0558197749497 290.1657371977207 1179.9738479674888 289.7055173872659 1179.8918761600282 289.2452975768111 1179.6717005958117 288.8329332087149 1179.451525031595 288.4205688406187 1179.1146980289013 288.09642501234197 1178.7778710262078 287.7722811840652 1178.3573635588727 287.5680873519624 1177.9368560915375 287.36389351985963 1177.4738303603112 287.2996375989191 1177.0108046290852 287.2353816779786 1176.5505848186303 287.31735348543936 1176.0903650081755 287.39932529290013 1175.6780006400793 287.61950085711675 1175.265636271983 287.83967642133337 1174.9414924437065 288.1765034240269 1174.6173486154296 288.5133304267205 1174.4131547833267 288.9338378940556 1174.208960951224 289.3543453613908 1171.3063753342922 295.80084822627657 1168.40378971736 302.2473510911623 1165.1273043462738 307.6965232377022 1161.8508189751876 313.14569538424206 1158.7460246088258 319.5959260939802 1155.6412302424642 326.04615680371836 1152.5957683106078 333.1287477722508 1149.5503063787514 340.2113387407832 1146.3072599093846 347.86243861735 1143.0642134400177 355.5135384939167 1143.1833015234831 360.3841098507522 1143.3023896069485 365.2546812075878 1145.234331617309 366.31065715906516 1147.1662736276694 367.3666331105426 1146.4679952152735 365.4905570709418 1145.7697168028776 363.61448103134103 1144.4339106091688 359.3782580426648 1143.09810441546 355.14203505398865 1141.826294381208 350.56219189241403 1140.554484346956 345.98234873083936 1139.2127839680213 340.8285187485482 1137.8710835890865 335.6746887662571 1136.5764420601035 330.3378524357417 1135.2818005311206 325.0010161052263 1134.1219689307145 320.24220724755526 1132.9621373303087 315.4833983898842 1132.6076310818028 310.5886898795446 Z"/></svg>